<svg width="900" height="260" viewBox="0 0 900 260" fill="none" xmlns="http://www.w3.org/2000/svg" role="img" aria-labelledby="title desc">
  <title id="title">KAILA logo</title>
  <desc id="desc">KAILA wordmark with local services marketplace icon.</desc>
  <rect width="900" height="260" rx="36" fill="#FFFFFF"/>
  <g transform="translate(54 38)">
    <rect width="184" height="184" rx="44" fill="#1E3A8A"/>
    <path d="M92 28C57.76 28 30 55.26 30 88.88C30 134.94 92 206 92 206C92 206 154 134.94 154 88.88C154 55.26 126.24 28 92 28Z" fill="#38BDF8"/>
    <circle cx="92" cy="89" r="35" fill="#FFFFFF"/>
    <path d="M73 66H86.5V87L106.5 66H124L100.5 90L126 124H109L91 99L86.5 103.5V124H73V66Z" fill="#1E3A8A"/>
    <path d="M44 152C56.5 141.5 71 136 87.5 136H111.5C123.5 136 134 142 140.5 152C127.5 165 111 172 92 172C73 172 57 165 44 152Z" fill="#2563EB"/>
  </g>
  <text x="286" y="113" fill="#1E3A8A" font-family="Inter, Arial, sans-serif" font-size="74" font-weight="800" letter-spacing="0">KAILA</text>
  <text x="291" y="157" fill="#2563EB" font-family="Inter, Arial, sans-serif" font-size="23" font-weight="700" letter-spacing="0">Local help, easier to find.</text>
  <text x="291" y="195" fill="#1E3A8A" font-family="Inter, Arial, sans-serif" font-size="18" font-weight="500" letter-spacing="0">A visibility platform for skilled people and trusted local services.</text>
</svg>
